# xmcd
# Track frame offsets:
# 182
# 36912
# 58010
# 86220
# 125617
# 161530
# 215615
# 243862
#
# Disc length: 3529 seconds
# Revision: 0
# Processed by: cddbd v1.5.2PL0 Copyright (c) Steve Scherf et al.
# Submitted via: VisiTrax 2.10.3.257 - For more info visit www.synapsa.com
#
DISCID=6e0dc708
DTITLE=John Coltrane - John Coltrane cd 06 Chronic Blues
DYEAR=1994
DGENRE=Blues
TTITLE0=Chronic Blues
TTITLE1=While my lady slepps
TTITLE2=Violet for your furs
TTITLE3=Come rain or come shine
TTITLE4=Lover
TTITLE5=By the numbers
TTITLE6=Just Friends
TTITLE7=Fifth house
EXTD=
EXTT0=
EXTT1=
EXTT2=
EXTT3=
EXTT4=
EXTT5=
EXTT6=
EXTT7=
PLAYORDER=
